<svg width="32" height="23" viewBox="0 0 32 23" fill="none" xmlns="http://www.w3.org/2000/svg">
<path fill-rule="evenodd" clip-rule="evenodd" d="M25.4043 5.84043C25.4043 7.40915 24.1326 8.68085 22.5638 8.68085C20.9951 8.68085 19.7234 7.40915 19.7234 5.84043C19.7234 4.2717 20.9951 3 22.5638 3C24.1326 3 25.4043 4.2717 25.4043 5.84043ZM24.6737 10.198C26.2899 9.41403 27.4043 7.75736 27.4043 5.84043C27.4043 3.16713 25.2371 1 22.5638 1C19.8905 1 17.7234 3.16713 17.7234 5.84043C17.7234 7.75736 18.8377 9.41403 20.4539 10.198C17.3829 10.9761 14.9733 13.4134 14.2348 16.5C14.0813 17.1416 14 17.8113 14 18.5H16H29.1277H31.1277C31.1277 17.8113 31.0464 17.1416 30.8929 16.5C30.1544 13.4134 27.7447 10.9761 24.6737 10.198ZM16.3103 16.5C17.1561 13.8529 19.6361 11.9362 22.5638 11.9362C25.4915 11.9362 27.9715 13.8529 28.8174 16.5H16.3103Z" fill="white"/>
<path d="M25 21.5H5.5V19.5C5.5 19 6 18.5 7.5 16.5C9 14.5 10.5 13.5 12 13C13.5 12.5 15 12.5 17.5 13C20 13.5 21 14.5 22.5 16C23.7 17.2 24.6667 20.1667 25 21.5Z" fill="#7E98DF"/>
<path d="M10.5 8.5C9.5 7 10 5 11.5 3L13.5 1.5H16C17 1.5 17.5 2 18.5 2.5C19.5 3 19.5 3.5 20 5C20.5 6.5 20 7.5 19.5 9.5C19 11.5 16 11 13.5 11C11 11 11.5 10 10.5 8.5Z" fill="#7E98DF"/>
<path fill-rule="evenodd" clip-rule="evenodd" d="M19.234 6.2234C19.234 8.55593 17.3432 10.4468 15.0106 10.4468C12.6781 10.4468 10.7872 8.55593 10.7872 6.2234C10.7872 3.89088 12.6781 2 15.0106 2C17.3432 2 19.234 3.89088 19.234 6.2234ZM17.7234 11.826C19.8013 10.8181 21.234 8.68804 21.234 6.2234C21.234 2.78631 18.4477 0 15.0106 0C11.5735 0 8.78723 2.78631 8.78723 6.2234C8.78723 8.68804 10.2199 10.8181 12.2979 11.826C8.16181 12.874 4.95872 16.2628 4.1812 20.5C4.06218 21.1486 4 21.817 4 22.5H6H24.0213H26.0213C26.0213 21.817 25.9591 21.1486 25.8401 20.5C25.0626 16.2628 21.8595 12.874 17.7234 11.826ZM6.22274 20.5C7.1324 16.4861 10.7216 13.4894 15.0106 13.4894C19.2997 13.4894 22.8889 16.4861 23.7985 20.5H6.22274Z" fill="white"/>
<rect x="3.83008" y="5.70215" width="1.91489" height="9.57447" rx="0.957447" fill="white"/>
<rect y="11.4468" width="1.91489" height="9.57447" rx="0.957447" transform="rotate(-90 0 11.4468)" fill="white"/>
</svg>
