<svg width="16" height="17" viewBox="0 0 16 17" fill="none" xmlns="http://www.w3.org/2000/svg">
<path fill-rule="evenodd" clip-rule="evenodd" d="M8.78308 1.5052C8.62303 1.47174 8.47918 1.37538 8.39742 1.23377C8.19409 0.881587 7.68166 0.874502 7.47832 1.22669C7.39625 1.36884 7.25218 1.46274 7.09109 1.49421C5.13795 1.8758 3.664 3.59639 3.664 5.66123C3.664 5.89028 3.68214 6.11509 3.71705 6.33431C3.81471 6.94746 3.80156 7.59503 3.49112 8.13272L0.270933 13.7103C-0.498868 15.0436 0.463384 16.7103 2.00299 16.7103H13.8687C15.4083 16.7103 16.3705 15.0436 15.6007 13.7103L12.3417 8.06548C12.036 7.53599 12.0185 6.89924 12.1089 6.29457C12.1398 6.08795 12.1558 5.87646 12.1558 5.66123C12.1558 3.61558 10.7092 1.90781 8.78308 1.5052Z" fill="#7E98DF"/>
<rect x="6.52148" width="2.83061" height="2.83061" rx="1.4153" fill="#7E98DF"/>
</svg>
