<svg width="16" height="16" viewBox="0 0 16 16" fill="none" xmlns="http://www.w3.org/2000/svg">
<path d="M4.14766 15.3978L6.11242 13.433C6.65407 12.8914 6.65407 12.0099 6.11242 11.4683L5.21935 10.5752C4.80899 10.1649 4.80911 9.4971 5.2192 9.08689L9.09344 5.21595C9.50476 4.80463 10.1705 4.80457 10.5819 5.21596C10.7257 5.3598 11.1388 5.77286 11.475 6.10902C12.0142 6.64832 12.8929 6.65586 13.4402 6.10849L15.3983 4.14426C15.9399 3.60257 15.9399 2.72118 15.3997 2.18095C14.999 1.77669 14.8697 1.6463 14.69 1.46504C12.7366 -0.488331 9.55832 -0.488331 7.60504 1.46495L1.46847 7.59831C-0.489499 9.55625 -0.489653 12.7252 1.46847 14.6833L2.18293 15.3978C2.72461 15.9395 3.60597 15.9395 4.14766 15.3978ZM14.7434 2.83444C14.9239 3.01499 14.9239 3.30873 14.7429 3.48987L12.7848 5.45411C12.6038 5.63509 12.3109 5.63509 12.1299 5.45411L11.8024 5.12662L14.4204 2.50865L14.7434 2.83444ZM2.12329 8.25334L8.25992 2.11995C9.77119 0.60868 12.1442 0.525612 13.7547 1.86448L11.1444 4.47486C10.3668 3.78896 9.18197 3.81754 8.43862 4.56089L4.56457 8.4317C4.56454 8.43173 4.56448 8.43179 4.56445 8.43182C3.82187 9.17437 3.79143 10.3591 4.47826 11.1376L1.86782 13.7481C0.531267 12.1427 0.601616 9.77501 2.12329 8.25334ZM2.83784 14.7429L2.51035 14.4154L5.13005 11.7958L5.45751 12.1232C5.63806 12.3038 5.63809 12.5976 5.45751 12.7781L3.49275 14.7429C3.31216 14.9235 3.01836 14.9235 2.83784 14.7429Z" fill="#1EB025"/>
</svg>
