<svg width="22" height="23" viewBox="0 0 22 23" fill="none" xmlns="http://www.w3.org/2000/svg">
<mask id="path-1-inside-1" fill="white">
<path fill-rule="evenodd" clip-rule="evenodd" d="M0.793945 10.1787C0.793945 11.1471 1.57899 11.9322 2.54739 11.9322C2.64256 11.9322 2.73596 11.9246 2.82701 11.91C3.53296 13.9826 5.49619 15.4734 7.80761 15.4734C8.17263 15.4734 8.52898 15.4362 8.87305 15.3654C9.48122 15.2403 10.1283 15.2594 10.666 15.5699L18.4967 20.0909C19.83 20.8607 21.4967 19.8984 21.4967 18.3588L21.4967 2.00298C21.4967 0.46338 19.83 -0.498872 18.4967 0.27093L10.5861 4.83808C10.0566 5.14379 9.42035 5.16711 8.82024 5.05009C8.49255 4.98619 8.15399 4.95271 7.80761 4.95271C5.52035 4.95271 3.57405 6.41251 2.84957 8.45125C2.7514 8.43419 2.65043 8.4253 2.54739 8.4253C1.57899 8.4253 0.793945 9.21035 0.793945 10.1787Z"/>
</mask>
<path d="M2.82701 11.91L4.7202 11.2652L4.17627 9.66826L2.51052 9.93521L2.82701 11.91ZM8.87305 15.3654L9.27603 17.3244L9.27603 17.3244L8.87305 15.3654ZM10.666 15.5699L9.66604 17.3019L9.66604 17.3019L10.666 15.5699ZM18.4967 20.0909L19.4967 18.3588L19.4967 18.3588L18.4967 20.0909ZM18.4967 0.27093L19.4967 2.00298L19.4967 2.00298L18.4967 0.27093ZM10.5861 4.83808L11.5861 6.57013L10.5861 4.83808ZM8.82024 5.05009L9.20303 3.08706L9.20303 3.08706L8.82024 5.05009ZM2.84957 8.45125L2.50728 10.4217L4.16927 10.7104L4.73411 9.12094L2.84957 8.45125ZM2.54739 9.93219C2.68356 9.93219 2.79394 10.0426 2.79394 10.1787L-1.20606 10.1787C-1.20606 12.2517 0.474419 13.9322 2.54739 13.9322L2.54739 9.93219ZM2.51052 9.93521C2.52374 9.93309 2.53617 9.93219 2.54739 9.93219L2.54739 13.9322C2.74894 13.9322 2.94817 13.9161 3.1435 13.8848L2.51052 9.93521ZM0.933825 12.5549C1.90735 15.413 4.61427 17.4734 7.80761 17.4734L7.80761 13.4734C6.3781 13.4734 5.15857 12.5521 4.7202 11.2652L0.933825 12.5549ZM7.80761 17.4734C8.30878 17.4734 8.80013 17.4223 9.27603 17.3244L8.47008 13.4064C8.25782 13.4501 8.03649 13.4734 7.80761 13.4734L7.80761 17.4734ZM9.27603 17.3244C9.42911 17.2929 9.54229 17.2894 9.61346 17.296C9.68001 17.3021 9.68752 17.3143 9.66604 17.3019L11.666 13.8378C10.5494 13.1931 9.34782 13.2259 8.47007 13.4064L9.27603 17.3244ZM9.66604 17.3019L17.4967 21.8229L19.4967 18.3588L11.666 13.8378L9.66604 17.3019ZM17.4967 21.8229C20.1633 23.3625 23.4967 21.438 23.4967 18.3588L19.4967 18.3588L19.4967 18.3588L17.4967 21.8229ZM23.4967 18.3588L23.4967 2.00298L19.4967 2.00298L19.4967 18.3588L23.4967 18.3588ZM23.4967 2.00298C23.4967 -1.07622 20.1633 -3.00072 17.4967 -1.46112L19.4967 2.00298L23.4967 2.00298ZM17.4967 -1.46112L9.58612 3.10603L11.5861 6.57013L19.4967 2.00298L17.4967 -1.46112ZM9.58612 3.10603C9.60734 3.09378 9.59992 3.10574 9.53465 3.11214C9.46493 3.11897 9.3539 3.11649 9.20303 3.08706L8.43744 7.01312C9.30461 7.18221 10.4866 7.20491 11.5861 6.57013L9.58612 3.10603ZM9.20303 3.08706C8.74989 2.9987 8.28315 2.95271 7.80761 2.95271L7.80761 6.95271C8.02483 6.95271 8.23521 6.97368 8.43745 7.01312L9.20303 3.08706ZM7.80761 2.95271C4.6476 2.95271 1.96398 4.97042 0.965022 7.78155L4.73411 9.12094C5.18412 7.8546 6.3931 6.95271 7.80761 6.95271L7.80761 2.95271ZM2.54739 10.4253C2.53521 10.4253 2.52167 10.4242 2.50728 10.4217L3.19186 6.48075C2.98113 6.44415 2.76565 6.4253 2.54739 6.4253L2.54739 10.4253ZM2.79394 10.1787C2.79394 10.3149 2.68356 10.4253 2.54739 10.4253L2.54739 6.4253C0.474418 6.4253 -1.20606 8.10578 -1.20606 10.1787L2.79394 10.1787Z" fill="white" mask="url(#path-1-inside-1)"/>
<rect x="8.74707" y="6.02417" width="2.47783" height="7.4335" fill="white"/>
<rect x="5.03027" y="13.4578" width="3.71675" height="8.67241" rx="1.85837" fill="white"/>
</svg>
