<svg width="22" height="22" viewBox="0 0 22 22" fill="none" xmlns="http://www.w3.org/2000/svg">
<path fill-rule="evenodd" clip-rule="evenodd" d="M14.8511 6.08512C14.8511 8.34127 13.0221 10.1702 10.766 10.1702C8.5098 10.1702 6.68083 8.34127 6.68083 6.08512C6.68083 3.82897 8.5098 2 10.766 2C13.0221 2 14.8511 3.82897 14.8511 6.08512ZM13.4186 11.5632C15.4503 10.5775 16.8511 8.4949 16.8511 6.08512C16.8511 2.7244 14.1267 0 10.766 0C7.40523 0 4.68083 2.7244 4.68083 6.08512C4.68083 8.49491 6.08159 10.5775 8.11329 11.5632C4.08368 12.5842 0.959824 15.8777 0.185422 19.9999C0.0636771 20.6479 0 21.3165 0 21.9999H2H19.532H21.532C21.532 21.3165 21.4683 20.6479 21.3465 19.9999C20.5721 15.8777 17.4483 12.5842 13.4186 11.5632ZM2.22919 19.9999C3.13408 16.1223 6.61273 13.2339 10.766 13.2339C14.9192 13.2339 18.3979 16.1223 19.3028 19.9999H2.22919Z" fill="white"/>
</svg>
