<?xml version="1.0" encoding="utf-8"?>
<!-- Generator: Adobe Illustrator 25.0.0, SVG Export Plug-In . SVG Version: 6.00 Build 0)  -->
<svg version="1.1" id="Layer_1" xmlns="http://www.w3.org/2000/svg" xmlns:xlink="http://www.w3.org/1999/xlink" x="0px" y="0px"
	 viewBox="0 0 18 18" style="enable-background:new 0 0 18 18;" xml:space="preserve">
<style type="text/css">
	.st0{fill:#7E98DF;}
</style>
<path class="st0" d="M17.3,7.4H9v3.5h4.8c-0.4,2.2-2.3,3.5-4.8,3.5c-0.7,0-1.4-0.1-2-0.4c-0.6-0.3-1.2-0.7-1.7-1.1
	c-0.5-0.5-0.9-1.1-1.1-1.7c-0.3-0.6-0.4-1.3-0.4-2c0-0.7,0.1-1.4,0.4-2c0.3-0.6,0.7-1.2,1.1-1.7c0.5-0.5,1.1-0.9,1.7-1.1
	c0.6-0.3,1.3-0.4,2-0.4c1.3,0,2.4,0.4,3.3,1.2l2.6-2.6C13.3,0.9,11.2,0,9,0C7.8,0,6.6,0.3,5.5,0.7C4.4,1.2,3.5,1.8,2.6,2.7
	S1.1,4.5,0.7,5.6C0.2,6.6,0,7.8,0,9c0,1.2,0.2,2.3,0.7,3.4c0.4,1.1,1.1,2.1,1.9,2.9s1.8,1.5,2.9,1.9c1.1,0.4,2.2,0.7,3.4,0.7
	c4.5,0,8.5-3.2,8.5-8.9C17.5,8.5,17.4,7.9,17.3,7.4z"/>
</svg>
