<svg width="24" height="23" viewBox="0 0 24 23" fill="none" xmlns="http://www.w3.org/2000/svg">
<path d="M3.94649 13.8208L6.72508 13.8208C7.49112 13.8208 8.11438 13.1975 8.11438 12.4315L8.11438 11.1685C8.11438 10.5882 8.58664 10.1161 9.16668 10.116L14.6433 10.1183C15.225 10.1183 15.6958 10.589 15.6958 11.1708C15.6958 11.3743 15.6958 11.9584 15.6958 12.4338C15.6958 13.1965 16.3118 13.8231 17.0859 13.8231L19.8593 13.8187C20.6254 13.8187 21.2486 13.1954 21.2486 12.4314C21.2511 11.8622 21.2519 11.6786 21.253 11.4234C21.253 8.66093 19.0056 6.41351 16.2432 6.41351L7.5671 6.41124C4.79813 6.41122 2.55722 8.65191 2.55724 11.4211L2.55722 12.4315C2.55722 13.1976 3.18043 13.8208 3.94649 13.8208ZM20.3224 12.4294C20.3224 12.6848 20.1147 12.8925 19.8586 12.8925L17.0851 12.8969C16.8292 12.8969 16.6221 12.6898 16.622 12.4338L16.6221 11.9707L20.3244 11.9707L20.3224 12.4294ZM7.56694 7.33744L16.2432 7.33973C18.3804 7.33973 20.1171 8.95898 20.3092 11.0445L16.6176 11.0445C16.5528 10.0097 15.6948 9.1921 14.6435 9.1921L9.16707 9.18981C9.16703 9.18981 9.16694 9.18981 9.1669 9.18981C8.11676 9.18979 7.25747 10.006 7.19265 11.0422L3.50093 11.0422C3.69102 8.96191 5.41498 7.33744 7.56694 7.33744ZM3.48338 12.4315V11.9684L7.18817 11.9684L7.18819 12.4315C7.18817 12.6868 6.98046 12.8946 6.72508 12.8946H3.94649C3.69111 12.8946 3.48336 12.6869 3.48338 12.4315Z" fill="#FF5555"/>
</svg>
